<svg width="468" height="390" viewBox="0 0 468 390" fill="none" xmlns="http://www.w3.org/2000/svg">
<g id="destiny-svg">
<g id="lotus">
<path id="Vector" d="M133.078 318.441C132.514 317.458 131.757 316.598 130.854 315.914C129.95 315.229 128.918 314.733 127.819 314.456C122.978 313.237 117.954 312.913 112.997 313.5C114.279 306.251 113.806 298.8 111.616 291.772C110.976 289.773 109.616 288.083 107.799 287.032C105.982 285.981 103.839 285.645 101.788 286.088C96.8511 287.181 92.1417 289.122 87.8687 291.825C84.4625 284.65 79.4006 278.386 73.1 273.55C71.6322 272.438 69.8413 271.837 68 271.837C66.1587 271.837 64.3678 272.438 62.9 273.55C56.5994 278.386 51.5375 284.65 48.1312 291.825C43.8583 289.122 39.1489 287.181 34.2125 286.088C32.1609 285.645 30.0179 285.981 28.201 287.032C26.3841 288.083 25.0235 289.773 24.3844 291.772C22.1942 298.8 21.7205 306.251 23.0031 313.5C18.0455 312.913 13.0223 313.237 8.18125 314.456C7.08326 314.733 6.0521 315.227 5.14905 315.91C4.24601 316.594 3.48951 317.451 2.92454 318.433C2.35956 319.414 1.99764 320.499 1.86029 321.623C1.72294 322.746 1.81296 323.887 2.125 324.975C3.98437 331.669 9.72187 344.472 27.1469 354.512C44.5719 364.553 59.7656 364.5 67.9469 364.5H68.0531C76.2344 364.5 91.5344 364.5 108.853 354.512C126.172 344.525 132.016 331.669 133.875 324.975C134.183 323.888 134.272 322.75 134.135 321.628C133.998 320.506 133.639 319.422 133.078 318.441V318.441ZM103.541 294.428C105.028 298.891 106.409 306.913 103.381 317.219L103.222 317.803C101.992 321.795 100.298 325.628 98.175 329.225C95.5984 333.672 92.4948 337.793 88.9312 341.497C91.6406 335.122 93.5 327.312 93.5 317.75C93.544 311.71 92.7027 305.696 91.0031 299.9C94.7865 297.278 99.0453 295.419 103.541 294.428V294.428ZM68 280.35C73.1 284.175 85 295.438 85 317.75C85 340.062 72.9406 351.537 68 355.15C63.0594 351.537 51 340.328 51 317.75C51 295.172 62.9 284.175 68 280.35V280.35ZM32.4594 294.428C36.9547 295.419 41.2135 297.278 44.9969 299.9C43.2973 305.696 42.456 311.71 42.5 317.75C42.5 327.312 44.3594 335.122 47.0687 341.497C43.5052 337.793 40.4016 333.672 37.825 329.225C35.6917 325.615 33.9974 321.762 32.7781 317.75L32.6187 317.272C29.5375 306.913 30.9719 298.891 32.4594 294.428V294.428ZM10.2531 322.691C13.5469 321.841 18.7 321.203 25.3406 322.372C26.6891 326.233 28.4152 329.952 30.4937 333.475C35.0492 341.346 41.0303 348.3 48.1312 353.981C42.2633 352.481 36.6316 350.175 31.3969 347.128C16.6281 338.575 11.8469 328.109 10.2531 322.691V322.691ZM104.603 347.128C99.3684 350.175 93.7367 352.481 87.8687 353.981C94.9697 348.3 100.951 341.346 105.506 333.475C107.585 329.952 109.311 326.233 110.659 322.372C115.635 321.417 120.755 321.508 125.694 322.637C124.153 328.109 119.372 338.575 104.603 347.128V347.128Z" fill="#E5E5E5"/>
</g>
<g id="buttefly">
<path id="Vector 1" d="M68.5 275.5C67 258.5 65.8085 236.447 73.5 218.5C79.5 204.5 96 186 114 172.5C114 172.5 154 145 188 150.5C216.312 155.08 250 151.5 265 145C272.167 143.5 286.6 136.7 287 121.5C287.4 106.3 277.167 98.4995 272 96.4995C265.167 93.6662 249.1 92.0995 239.5 108.5C232 122.5 240.239 133.738 243 136.5C263.5 157 308.5 134.5 332 128L365 118C372 114.5 385.8 103.4 385 86.9996C384.2 70.5996 371.333 60.4996 365 57.4996C359.167 55.1662 344.4 52.8996 332 62.4996C319.6 72.0996 319.167 87.1662 320.5 93.4996C322 100.5 329.2 115.2 346 118C367 121.5 396 108.5 408.5 93.4996C416.5 82 422.3 68.6992 425.5 57.4996" stroke="#E4E4E4" stroke-width="2" stroke-linecap="round" stroke-dasharray="4 4"/>
<g id="buttefly_2">
<path id="Vector 4" d="M425.775 57.005C428.567 60.5378 439.585 64.7665 445.25 59.2321C450.915 53.6978 451.033 49.2988 449.396 46.7796C451.717 47.8067 456.513 45.3624 458.959 41.3907C461.323 38.7513 465.373 31.6647 466.657 24.4792C467.191 21.4852 463.65 13.0502 455.274 14.346C446.257 15.741 443.745 16.7119 438.211 19.6476L439.775 14.1654C440.128 12.5028 439.905 10.6892 437.822 10.1425C435.828 9.61929 434.828 9.6075 433.793 12.5956L432.235 17.578C429.293 12.5434 423.881 4.97988 419.41 2.42758C416.927 1.00961 415.43 0.681045 411.417 1.83436C408.907 2.63853 404.865 6.25838 403.76 15.2461C403.554 18.5773 403.238 25.7407 403.614 27.7453C404.085 30.2509 407.038 34.2856 408.532 34.8031C407.029 35.1189 404.102 37.3516 404.428 43.7558C404.753 50.1601 408.811 53.8076 410.799 54.8308C413.619 56.0304 420.366 57.7425 424.798 54.9939" stroke="#E4E4E4" stroke-width="2" stroke-linecap="round"/>
<path id="Vector 3" d="M447.312 40.5544C448.014 41.3285 450.46 41.4485 454.627 35.7357C456.947 32.5554 459.658 29.7315 460 27C460.273 24.825 460.245 22.5523 460 21.5C458.633 19.6696 450.159 21.1196 444.525 24.3696C440.537 26.6701 437.261 28.0945 434.847 32.3347L430.713 49.6328C431.199 54.401 435.451 55.6989 437.517 55.7518C441.262 56.1998 443.676 51.9596 444.159 51.1115C445.627 48.5323 442.74 43.566 440.531 43.4312C438.763 43.3233 438.068 42.4033 437.941 41.9569C436.888 40.7957 437.154 39.0648 439.492 37.2252C441.562 35.5965 445.332 38.6785 447.312 40.5544Z" stroke="#E4E4E4" stroke-width="2"/>
<path id="Vector 2" d="M410 23C409.2 15.8 412.333 10.3334 414 8.50003C416.108 7.56317 421.19 12.2496 424.5 18C426.843 22.0704 429 25 429 30L424 47.5C421.2 51.5 416.833 50.5 415 49.5C411.5 48 411.5 43 411.5 42C411.5 38.9586 416.5 36 418.5 37C420.1 37.8 421.167 37.3334 421.5 37C423 36.5 423.63 34.8239 422.5 32C421.5 29.5 416.667 30.3334 414 31C413 31.3334 410.8 30.2 410 23Z" stroke="#E4E4E4" stroke-width="2"/>
</g>
</g>
</g>
</svg>
