<svg width="596" height="817" viewBox="0 0 596 817" fill="none" xmlns="http://www.w3.org/2000/svg">
<path d="M224.142 140.351L207.032 157.466L353.038 170.018L440.869 82.1564C454.557 68.4637 479.652 47.9246 516.153 25.1034C552.655 2.28213 576.609 -4.56424 585.734 4.56425C610.829 29.6676 585.734 78.7332 510.45 152.902L423.759 239.623L436.306 385.679L453.416 369.704C467.104 354.87 481.933 354.87 493.34 366.281C507.028 379.973 501.325 399.371 473.948 426.757L446.572 455.284L460.26 553.415L479.652 532.876C492.199 519.183 505.887 519.183 518.435 530.594C532.123 544.286 529.841 561.402 511.591 579.659L470.526 620.737C486.496 730.279 488.777 791.897 476.23 804.448C470.526 809.013 462.542 813.577 451.135 815.859C440.869 817 431.744 815.859 426.04 811.295C421.478 805.589 414.634 785.05 407.79 749.677C399.805 713.163 380.414 651.546 346.194 564.825C313.114 476.964 289.16 427.898 277.753 415.346C273.191 410.782 266.347 410.782 258.362 415.346C250.377 418.77 221.861 442.732 176.234 487.233C130.607 532.876 88.4025 569.39 48.4791 597.916C47.3384 604.763 50.7604 627.584 56.4638 665.239C62.1671 702.894 64.4485 727.997 63.3078 737.126C61.0265 746.254 51.9011 758.806 37.0724 773.64C29.0877 781.627 23.3844 786.191 17.681 787.332C2.85236 772.499 -19.961 724.574 -50.7591 645.841C-136.309 608.186 -183.077 584.223 -192.202 575.095C-192.202 570.531 -187.639 563.684 -179.655 555.697C-164.826 540.863 -152.279 531.735 -142.013 530.594C-132.887 528.311 -108.933 531.735 -71.2911 538.581C-33.649 544.286 -10.8357 546.568 -2.85098 546.568C24.5251 505.49 75.8552 445.014 155.702 365.14C178.515 340.036 185.359 324.061 177.375 316.074C165.968 303.522 115.779 280.701 29.0877 247.61C-58.7437 214.52 -119.199 192.839 -155.701 185.993C-192.202 178.006 -212.734 172.3 -217.297 166.595C-223 162.031 -224.141 152.902 -221.859 141.492C-220.719 130.081 -216.156 122.094 -210.453 116.388C-199.046 104.978 -137.45 106.119 -26.805 122.094L13.1184 81.0154C31.3691 63.8994 48.4791 61.6173 62.1671 75.3101C74.7145 86.7207 73.5738 100.413 61.0265 112.965L40.4944 132.363L138.592 146.056L165.968 119.811C193.344 92.426 212.735 86.7207 226.423 100.413C238.971 112.965 237.83 125.517 224.142 140.351Z" fill="#D2D2D2" fill-opacity="0.11"/>
</svg>
