<svg width="266" height="763" viewBox="0 0 266 763" fill="none" xmlns="http://www.w3.org/2000/svg">
<path d="M333.175 294.613H288.756V272.709H269.321V37.0055H293.838V0H85.6842V37.0055H110.124V272.709H90.6889V294.613H46.2499C33.9896 294.672 22.2416 302.649 13.5722 316.802C4.90278 330.956 0.0164307 350.135 -0.0195312 370.15V647.374C0.0164307 667.389 4.90278 686.568 13.5722 700.721C22.2416 714.875 33.9896 722.852 46.2499 722.911H59.6673C59.6673 728.171 60.302 733.38 61.5351 738.24C62.7682 743.1 64.5755 747.516 66.854 751.236C69.1324 754.955 71.8374 757.906 74.8143 759.919C77.7913 761.932 80.9819 762.968 84.2041 762.968C87.4264 762.968 90.617 761.932 93.594 759.919C96.5709 757.906 99.2759 754.955 101.554 751.236C103.833 747.516 105.64 743.1 106.873 738.24C108.106 733.38 108.741 728.171 108.741 722.911H270.256C270.256 728.171 270.89 733.38 272.124 738.24C273.357 743.1 275.164 747.516 277.442 751.236C279.721 754.955 282.426 757.906 285.403 759.919C288.38 761.932 291.57 762.968 294.793 762.968C298.015 762.968 301.205 761.932 304.182 759.919C307.159 757.906 309.864 754.955 312.143 751.236C314.421 747.516 316.229 743.1 317.462 738.24C318.695 733.38 319.329 728.171 319.329 722.911H333.214C345.475 722.852 357.222 714.875 365.892 700.721C374.561 686.568 379.448 667.389 379.484 647.374V370.15C379.448 350.135 374.561 330.956 365.892 316.802C357.222 302.649 345.475 294.672 333.214 294.613H333.175ZM117.991 37.0055H261.434V272.709H241.999V294.613H137.426V272.709H117.991V37.0055ZM73.5715 611.163L38.9473 548.438L141.204 398.095L175.906 460.788L73.5715 611.163ZM215.184 352.824H270.704V437.453H215.184V352.824ZM285.523 649.694C275.27 649.694 265.248 644.731 256.723 635.432C248.198 626.133 241.554 612.915 237.63 597.451C233.707 581.987 232.68 564.971 234.68 548.555C236.68 532.138 241.618 517.059 248.867 505.223C256.117 493.387 265.354 485.327 275.41 482.062C285.466 478.796 295.889 480.472 305.361 486.878C314.833 493.283 322.929 504.13 328.626 518.047C334.322 531.965 337.362 548.327 337.362 565.065V565.224C337.357 587.624 331.904 609.105 322.202 624.944C312.499 640.784 299.342 649.686 285.62 649.694H285.523Z" fill="#989CA0" fill-opacity="0.25"/>
</svg>
